#define iconify_width 8
#define iconify_height 8
static char iconify_bits[] = { 
0x00, 0x00, 0x82, 0x44, 0x28, 0x10, 0x00, 0x00 };
