#define max_width 8
#define max_height 8
static char max_bits[] = { 
0x00, 0x00, 0x10, 0x28, 0x44, 0x82, 0x00, 0x00 };
